<?xml version="1.0" standalone="no"?>
<!DOCTYPE svg PUBLIC "-//W3C//DTD SVG 1.1//EN" "http://www.w3.org/Graphics/SVG/1.1/DTD/svg11.dtd" >
<svg xmlns="http://www.w3.org/2000/svg">
<metadata>Generated by IcoMoon</metadata>
<defs>
<font id="MyPaintIcon" horiz-adv-x="1024">
<font-face units-per-em="1024" ascent="960" descent="-64" />
<missing-glyph horiz-adv-x="1024" />
<glyph unicode="&#x20;" horiz-adv-x="512" d="" />
<glyph unicode="&#xe900;" glyph-name="bring_to_front" d="M0 960v-472.614h275.69v-275.69h275.69v-275.69h472.614v472.614h-275.69v275.69h-275.69v275.69zM354.462 605.538h315.076v-315.076h-315.076z" />
<glyph unicode="&#xe901;" glyph-name="circle" d="M512-10.667c-252.267 0-458.667 206.4-458.667 458.667s206.4 458.667 458.667 458.667c252.267 0 458.667-206.4 458.667-458.667s-206.4-458.667-458.667-458.667zM512 814.933c-201.813 0-366.933-165.12-366.933-366.933s165.12-366.933 366.933-366.933 366.933 165.12 366.933 366.933-165.12 366.933-366.933 366.933z" />
<glyph unicode="&#xe902;" glyph-name="front_sorting" d="M32 928v-600h360v-360h600v600h-360v360h-600zM832.002 928l-120-120 120-120v80.002h80.002v-120h80.002v200.002h-159.998v80.002zM632 487.998h279.998v-440.002h-440.002v279.998h159.998v159.998z" />
<glyph unicode="&#xe903;" glyph-name="hexagon" d="M277.333 42.667l-234.667 405.333 234.667 405.333h469.333l234.667-405.333-234.667-405.333h-469.333zM320 128h384l170.667 320-170.667 320h-384l-170.667-320 170.667-320z" />
<glyph unicode="&#xe904;" glyph-name="line" d="M128.033 124.632l707.351 707.376 60.627-60.625-707.351-707.376z" />
<glyph unicode="&#xe905;" glyph-name="octagon" d="M702.347-10.667h-380.693l-268.32 268.32v380.693l268.32 268.32h380.693l268.32-268.32v-380.693l-268.32-268.32zM360.64 81.067h302.72l215.573 215.573v302.72l-215.573 215.573h-302.72l-215.573-215.573v-302.72l215.573-215.573z" />
<glyph unicode="&#xe906;" glyph-name="oval" d="M512 106.667c-259.691 0-448 147.392-448 339.648 0 192.213 188.309 343.019 448 343.019 259.669 0 448-150.805 448-343.019 0-192.256-188.352-339.648-448-339.648zM512 704c-212.821 0-362.667-108.331-362.667-256 0-147.627 149.824-256 362.667-256 212.8 0 362.667 108.373 362.667 256 0 147.669-149.867 256-362.667 256z" />
<glyph unicode="&#xe907;" glyph-name="pentagon" d="M780.843 21.333h-537.643l-157.867 512 426.667 341.333 426.667-341.333-157.824-512zM306.155 106.667h411.733l121.707 395.008-327.595 265.621-327.552-265.621 121.707-395.008z" />
<glyph unicode="&#xe908;" glyph-name="polygon" d="M298.667 106.667l-234.667 340.992 234.667 320.341h426.667l234.667-319.659-234.667-341.675h-426.667zM341.333 192h341.333l172.48 255.083-172.48 235.584h-341.333l-173.483-235.584 173.483-255.083z" />
<glyph unicode="&#xe909;" glyph-name="rectangular" d="M64 128v640h896v-640h-896zM149.333 213.333h725.333v469.333h-725.333v-469.333z" />
<glyph unicode="&#xe90a;" glyph-name="redo" d="M917.333 576l-298.667 249.6v-499.2zM426.667 661.333h256v-170.667h-256c-59.733 0-106.667-46.933-106.667-106.667s46.933-106.667 106.667-106.667h64v-170.667h-64c-153.6 0-277.333 123.733-277.333 277.333s123.733 277.333 277.333 277.333z" />
<glyph unicode="&#xe90b;" glyph-name="rhombus" d="M512-17.067l-465.067 465.067 465.067 465.067 465.067-465.067-465.067-465.067zM166.4 448l345.6-345.6 345.6 345.6-345.6 345.6-345.6-345.6z" />
<glyph unicode="&#xe90c;" glyph-name="send_backward" d="M64 896v-570.182h325.818v-325.818h570.182v570.182h-325.818v325.818zM145.46 814.54h407.275v-244.369h-162.909v-162.909h-244.369z" />
<glyph unicode="&#xe90d;" glyph-name="send_to_back" d="M64 896v-413.538h241.23v-241.23h241.23v-241.23h413.538v413.538h-241.23v241.23h-241.23v241.23zM477.538 585.846h172.308v-172.308h-103.384v-103.384h-172.308v172.308h103.384z" />
<glyph unicode="&#xe90e;" glyph-name="transfer" d="M64 896v-560h336v-336h560v560h-336v336h-560zM624 485.332h261.332v-410.668h-410.668v261.332h149.332v149.332zM64 261.332v-186.668h149.332v-74.668l112 112-112 112v-74.668h-74.668v112h-74.668z" />
<glyph unicode="&#xe90f;" glyph-name="triangle" d="M947.2 64h-870.4l435.2 770.133 435.2-770.133zM221.867 149.333h578.133l-288 509.867-290.133-509.867z" />
<glyph unicode="&#xe910;" glyph-name="undo" d="M106.667 576l298.667 249.6v-499.2zM597.333 661.333h-256v-170.667h256c59.733 0 106.667-46.933 106.667-106.667s-46.933-106.667-106.667-106.667h-64v-170.667h64c153.6 0 277.333 123.733 277.333 277.333s-123.733 277.333-277.333 277.333z" />
<glyph unicode="&#xe911;" glyph-name="verticalLine" d="M469.333 896h85.333v-896h-85.333z" />
<glyph unicode="&#xe912;" glyph-name="cursor" horiz-adv-x="1056" d="M390.376 803.476l424.448-397.92-204.267-18.568 119.375-259.977-76.932-34.488-114.073 262.63-148.557-135.295v583.618zM390.376 856.533c-7.96 0-13.262-2.653-21.222-5.307-18.568-7.96-31.835-26.528-31.835-47.75v-583.618c0-21.222 13.262-39.79 31.835-47.75 7.96-5.307 15.915-5.307 21.222-5.307 13.262 0 26.528 5.307 37.142 13.262l90.193 84.892 82.238-193.653c5.307-13.262 15.915-23.875 29.182-29.182 5.307-2.653 13.262-2.653 18.568-2.653 7.96 0 13.262 2.653 21.222 5.307l76.932 34.488c13.262 5.307 23.875 15.915 29.182 29.182s5.307 29.182 0 39.79l-87.545 191.005 129.988 10.613c21.222 2.653 39.79 15.915 45.097 34.488 7.96 18.568 2.653 42.443-13.262 55.71l-424.448 397.92c-7.96 13.262-21.222 18.568-34.488 18.568v0z" />
<glyph unicode="&#xe913;" glyph-name="drag" d="M1008 448l-165.332 165.332v-330.668zM16 448l165.332-165.332v330.668zM677.332 778.668l-165.332 165.332-165.332-165.332zM677.332 117.332l-165.332-165.332-165.332 165.332zM464.761 847.28h94.477v-800.803h-94.477zM86.858 495.239h850.287v-94.477h-850.287z" />
<glyph unicode="&#xe914;" glyph-name="flip_horizontal" d="M919.292 927.999l-813.398-442.168h813.398zM104.709 410.167l131.23-70.937 683.349-371.23v442.168zM402.64 334.502h440.987v-240z" />
<glyph unicode="&#xe915;" glyph-name="flip_vertical" d="M474.62 850.443l-70.093-129.669-336.44-620.31-30.374-54.905h436.903zM549.384 849.272v-803.716h436.903zM399.854 556.058v-435.737h-237.143z" />
<glyph unicode="&#xe916;" glyph-name="no_rotate_left" d="M118.625 886.625l-45.25-45.25 122.187-122.188c-0.029-0.034-0.033-0.091-0.062-0.125l45.438-45.438c0.029 0.035 0.034 0.090 0.062 0.125l496.375-496.375c-0.045-0.038-0.080-0.087-0.125-0.125l45.125-45.062c0.034 0.029 0.091 0.034 0.125 0.062l122.875-122.875 45.25 45.25-123.25 123.25c62.383 72.674 100.625 166.826 100.625 270.125 0 228.655-187.345 416-416 416-101.645 0-196.486-36.652-270.688-100.062l-122.688 122.687zM195.5 719.062l-3.5 3.5v-8c0.96 1.6 2.22 3.22 3.5 4.5zM512 800c193.745 0 352-158.255 352-352 0-85.725-30.893-163.837-81.75-225l-495.937 495.938c61.661 51.851 139.838 81.062 225.688 81.062zM128 696.312v-120.312h120.312l-120.312 120.312zM96 448v-32h64v32h-64zM171 364.813l-61.438-17.75 7.75-27 0.75-2.25 9.813-26.438 0.375-1.062 0.5-1.063 1.5-3.25 58.25 26.5-1.125 2.5-9.063 24.625-0.188 0.438-7.125 24.75zM213.875 263.438l-53.875-34.562 11.062-17.188 0.562-0.937 0.688-0.938 16.688-22.313 1.375-1.75 7.625-8.813 48.438 41.813-7 8.187-15.813 21.187-9.75 15.313zM285.438 179.562l-42.062-48.25 8.937-7.813 0.875-0.75 0.875-0.688 23.125-17.438 1-0.625 16.937-10.938 34.75 53.75-15.625 10.062-20.875 15.75-7.938 6.938zM683.5 140.813c-50.56-28.48-109.1-44.813-171.5-44.813h-32v-64h32c80 0 154.57 22.702 218.25 62.062l-46.75 46.75zM378.813 121.5l-26.438-58.313 3.187-1.437 1.125-0.5 1.125-0.437 27.562-10.062 1.187-0.313 27.188-7.625 17.312 61.625-25.875 7.25-24.312 8.875-2.062 0.938z" />
<glyph unicode="&#xe917;" glyph-name="resize" d="M0 960v-93.090h93.090v93.090zM186.18 960v-93.090h93.090v93.090zM372.36 960v-93.090h93.090v93.090zM558.55 960v-93.090h93.090v93.090zM744.73 960v-93.090h93.090v93.090zM930.91 960v-93.090h93.090v93.090zM0 773.82v-93.090h93.090v93.090zM930.91 773.82v-93.090h93.090v93.090zM418.91 680.73v-93.090h165.82l-186.18-186.18h-398.55v-465.45h465.45v398.55l186.18 186.18v-165.82h93.090v325.82zM0 587.64v-93.090h93.090v93.090zM930.91 587.64v-93.090h93.090v93.090zM930.91 401.45v-93.090h93.090v93.090zM93.090 308.36h279.27v-279.27h-279.27zM930.91 215.27v-93.090h93.090v93.090zM558.55 29.090v-93.090h93.090v93.090zM744.73 29.090v-93.090h93.090v93.090zM930.91 29.090v-93.090h93.090v93.090z" />
<glyph unicode="&#xe918;" glyph-name="resize_file" d="M0 960v-93.091h93.091v93.091h-93.091zM186.182 960v-93.091h93.091v93.091h-93.091zM372.364 960v-93.091h93.091v93.091h-93.091zM558.545 960v-93.091h93.091v93.091h-93.091zM744.727 960v-93.091h93.091v93.091h-93.091zM930.909 960v-93.091h93.091v93.091h-93.091zM0 773.818v-93.091h93.091v93.091h-93.091zM930.909 773.818v-93.091h93.091v93.091h-93.091zM0 587.636v-651.636h651.636v651.636h-651.636zM930.909 587.636v-93.091h93.091v93.091h-93.091zM93.091 494.545h465.455v-465.455h-465.455v465.455zM930.909 401.455v-93.091h93.091v93.091h-93.091zM930.909 215.273v-93.091h93.091v93.091h-93.091zM744.727 29.091v-93.091h93.091v93.091h-93.091zM930.909 29.091v-93.091h93.091v93.091h-93.091z" />
</font>
</defs>
</svg>
